# AXUM demo mesh
# vertices 480
# faces 768
v 0.580000 0.000000 0.000000
v 0.578758 0.000000 0.037934
v 0.575038 0.000000 0.075705
v 0.568855 0.000000 0.113152
v 0.560237 0.000000 0.150115
v 0.549219 0.000000 0.186435
v 0.535850 0.000000 0.221956
v 0.520186 0.000000 0.256527
v 0.502295 0.000000 0.290000
v 0.482252 0.000000 0.322231
v 0.460145 0.000000 0.353082
v 0.436067 0.000000 0.382421
v 0.410122 0.000000 0.410122
v 0.382421 0.000000 0.436067
v 0.353082 0.000000 0.460145
v 0.322231 0.000000 0.482252
v 0.290000 0.000000 0.502295
v 0.256527 0.000000 0.520186
v 0.221956 0.000000 0.535850
v 0.186435 0.000000 0.549219
v 0.150115 0.000000 0.560237
v 0.113152 0.000000 0.568855
v 0.075705 0.000000 0.575038
v 0.037934 0.000000 0.578758
v 0.000000 0.000000 0.580000
v -0.037934 0.000000 0.578758
v -0.075705 0.000000 0.575038
v -0.113152 0.000000 0.568855
v -0.150115 0.000000 0.560237
v -0.186435 0.000000 0.549219
v -0.221956 0.000000 0.535850
v -0.256527 0.000000 0.520186
v -0.290000 0.000000 0.502295
v -0.322231 0.000000 0.482252
v -0.353082 0.000000 0.460145
v -0.382421 0.000000 0.436067
v -0.410122 0.000000 0.410122
v -0.436067 0.000000 0.382421
v -0.460145 0.000000 0.353082
v -0.482252 0.000000 0.322231
v -0.502295 0.000000 0.290000
v -0.520186 0.000000 0.256527
v -0.535850 0.000000 0.221956
v -0.549219 0.000000 0.186435
v -0.560237 0.000000 0.150115
v -0.568855 0.000000 0.113152
v -0.575038 0.000000 0.075705
v -0.578758 0.000000 0.037934
v -0.580000 0.000000 0.000000
v -0.578758 0.000000 -0.037934
v -0.575038 0.000000 -0.075705
v -0.568855 0.000000 -0.113152
v -0.560237 0.000000 -0.150115
v -0.549219 0.000000 -0.186435
v -0.535850 0.000000 -0.221956
v -0.520186 0.000000 -0.256527
v -0.502295 0.000000 -0.290000
v -0.482252 0.000000 -0.322231
v -0.460145 0.000000 -0.353082
v -0.436067 0.000000 -0.382421
v -0.410122 0.000000 -0.410122
v -0.382421 0.000000 -0.436067
v -0.353082 0.000000 -0.460145
v -0.322231 0.000000 -0.482252
v -0.290000 0.000000 -0.502295
v -0.256527 0.000000 -0.520186
v -0.221956 0.000000 -0.535850
v -0.186435 0.000000 -0.549219
v -0.150115 0.000000 -0.560237
v -0.113152 0.000000 -0.568855
v -0.075705 0.000000 -0.575038
v -0.037934 0.000000 -0.578758
v -0.000000 0.000000 -0.580000
v 0.037934 0.000000 -0.578758
v 0.075705 0.000000 -0.575038
v 0.113152 0.000000 -0.568855
v 0.150115 0.000000 -0.560237
v 0.186435 0.000000 -0.549219
v 0.221956 0.000000 -0.535850
v 0.256527 0.000000 -0.520186
v 0.290000 0.000000 -0.502295
v 0.322231 0.000000 -0.482252
v 0.353082 0.000000 -0.460145
v 0.382421 0.000000 -0.436067
v 0.410122 0.000000 -0.410122
v 0.436067 0.000000 -0.382421
v 0.460145 0.000000 -0.353082
v 0.482252 0.000000 -0.322231
v 0.502295 0.000000 -0.290000
v 0.520186 0.000000 -0.256527
v 0.535850 0.000000 -0.221956
v 0.549219 0.000000 -0.186435
v 0.560237 0.000000 -0.150115
v 0.568855 0.000000 -0.113152
v 0.575038 0.000000 -0.075705
v 0.578758 0.000000 -0.037934
v 0.580000 0.040000 0.000000
v 0.578758 0.040000 0.037934
v 0.575038 0.040000 0.075705
v 0.568855 0.040000 0.113152
v 0.560237 0.040000 0.150115
v 0.549219 0.040000 0.186435
v 0.535850 0.040000 0.221956
v 0.520186 0.040000 0.256527
v 0.502295 0.040000 0.290000
v 0.482252 0.040000 0.322231
v 0.460145 0.040000 0.353082
v 0.436067 0.040000 0.382421
v 0.410122 0.040000 0.410122
v 0.382421 0.040000 0.436067
v 0.353082 0.040000 0.460145
v 0.322231 0.040000 0.482252
v 0.290000 0.040000 0.502295
v 0.256527 0.040000 0.520186
v 0.221956 0.040000 0.535850
v 0.186435 0.040000 0.549219
v 0.150115 0.040000 0.560237
v 0.113152 0.040000 0.568855
v 0.075705 0.040000 0.575038
v 0.037934 0.040000 0.578758
v 0.000000 0.040000 0.580000
v -0.037934 0.040000 0.578758
v -0.075705 0.040000 0.575038
v -0.113152 0.040000 0.568855
v -0.150115 0.040000 0.560237
v -0.186435 0.040000 0.549219
v -0.221956 0.040000 0.535850
v -0.256527 0.040000 0.520186
v -0.290000 0.040000 0.502295
v -0.322231 0.040000 0.482252
v -0.353082 0.040000 0.460145
v -0.382421 0.040000 0.436067
v -0.410122 0.040000 0.410122
v -0.436067 0.040000 0.382421
v -0.460145 0.040000 0.353082
v -0.482252 0.040000 0.322231
v -0.502295 0.040000 0.290000
v -0.520186 0.040000 0.256527
v -0.535850 0.040000 0.221956
v -0.549219 0.040000 0.186435
v -0.560237 0.040000 0.150115
v -0.568855 0.040000 0.113152
v -0.575038 0.040000 0.075705
v -0.578758 0.040000 0.037934
v -0.580000 0.040000 0.000000
v -0.578758 0.040000 -0.037934
v -0.575038 0.040000 -0.075705
v -0.568855 0.040000 -0.113152
v -0.560237 0.040000 -0.150115
v -0.549219 0.040000 -0.186435
v -0.535850 0.040000 -0.221956
v -0.520186 0.040000 -0.256527
v -0.502295 0.040000 -0.290000
v -0.482252 0.040000 -0.322231
v -0.460145 0.040000 -0.353082
v -0.436067 0.040000 -0.382421
v -0.410122 0.040000 -0.410122
v -0.382421 0.040000 -0.436067
v -0.353082 0.040000 -0.460145
v -0.322231 0.040000 -0.482252
v -0.290000 0.040000 -0.502295
v -0.256527 0.040000 -0.520186
v -0.221956 0.040000 -0.535850
v -0.186435 0.040000 -0.549219
v -0.150115 0.040000 -0.560237
v -0.113152 0.040000 -0.568855
v -0.075705 0.040000 -0.575038
v -0.037934 0.040000 -0.578758
v -0.000000 0.040000 -0.580000
v 0.037934 0.040000 -0.578758
v 0.075705 0.040000 -0.575038
v 0.113152 0.040000 -0.568855
v 0.150115 0.040000 -0.560237
v 0.186435 0.040000 -0.549219
v 0.221956 0.040000 -0.535850
v 0.256527 0.040000 -0.520186
v 0.290000 0.040000 -0.502295
v 0.322231 0.040000 -0.482252
v 0.353082 0.040000 -0.460145
v 0.382421 0.040000 -0.436067
v 0.410122 0.040000 -0.410122
v 0.436067 0.040000 -0.382421
v 0.460145 0.040000 -0.353082
v 0.482252 0.040000 -0.322231
v 0.502295 0.040000 -0.290000
v 0.520186 0.040000 -0.256527
v 0.535850 0.040000 -0.221956
v 0.549219 0.040000 -0.186435
v 0.560237 0.040000 -0.150115
v 0.568855 0.040000 -0.113152
v 0.575038 0.040000 -0.075705
v 0.578758 0.040000 -0.037934
v 0.580000 0.000000 0.000000
v 0.578758 0.000000 0.037934
v 0.575038 0.000000 0.075705
v 0.568855 0.000000 0.113152
v 0.560237 0.000000 0.150115
v 0.549219 0.000000 0.186435
v 0.535850 0.000000 0.221956
v 0.520186 0.000000 0.256527
v 0.502295 0.000000 0.290000
v 0.482252 0.000000 0.322231
v 0.460145 0.000000 0.353082
v 0.436067 0.000000 0.382421
v 0.410122 0.000000 0.410122
v 0.382421 0.000000 0.436067
v 0.353082 0.000000 0.460145
v 0.322231 0.000000 0.482252
v 0.290000 0.000000 0.502295
v 0.256527 0.000000 0.520186
v 0.221956 0.000000 0.535850
v 0.186435 0.000000 0.549219
v 0.150115 0.000000 0.560237
v 0.113152 0.000000 0.568855
v 0.075705 0.000000 0.575038
v 0.037934 0.000000 0.578758
v 0.000000 0.000000 0.580000
v -0.037934 0.000000 0.578758
v -0.075705 0.000000 0.575038
v -0.113152 0.000000 0.568855
v -0.150115 0.000000 0.560237
v -0.186435 0.000000 0.549219
v -0.221956 0.000000 0.535850
v -0.256527 0.000000 0.520186
v -0.290000 0.000000 0.502295
v -0.322231 0.000000 0.482252
v -0.353082 0.000000 0.460145
v -0.382421 0.000000 0.436067
v -0.410122 0.000000 0.410122
v -0.436067 0.000000 0.382421
v -0.460145 0.000000 0.353082
v -0.482252 0.000000 0.322231
v -0.502295 0.000000 0.290000
v -0.520186 0.000000 0.256527
v -0.535850 0.000000 0.221956
v -0.549219 0.000000 0.186435
v -0.560237 0.000000 0.150115
v -0.568855 0.000000 0.113152
v -0.575038 0.000000 0.075705
v -0.578758 0.000000 0.037934
v -0.580000 0.000000 0.000000
v -0.578758 0.000000 -0.037934
v -0.575038 0.000000 -0.075705
v -0.568855 0.000000 -0.113152
v -0.560237 0.000000 -0.150115
v -0.549219 0.000000 -0.186435
v -0.535850 0.000000 -0.221956
v -0.520186 0.000000 -0.256527
v -0.502295 0.000000 -0.290000
v -0.482252 0.000000 -0.322231
v -0.460145 0.000000 -0.353082
v -0.436067 0.000000 -0.382421
v -0.410122 0.000000 -0.410122
v -0.382421 0.000000 -0.436067
v -0.353082 0.000000 -0.460145
v -0.322231 0.000000 -0.482252
v -0.290000 0.000000 -0.502295
v -0.256527 0.000000 -0.520186
v -0.221956 0.000000 -0.535850
v -0.186435 0.000000 -0.549219
v -0.150115 0.000000 -0.560237
v -0.113152 0.000000 -0.568855
v -0.075705 0.000000 -0.575038
v -0.037934 0.000000 -0.578758
v -0.000000 0.000000 -0.580000
v 0.037934 0.000000 -0.578758
v 0.075705 0.000000 -0.575038
v 0.113152 0.000000 -0.568855
v 0.150115 0.000000 -0.560237
v 0.186435 0.000000 -0.549219
v 0.221956 0.000000 -0.535850
v 0.256527 0.000000 -0.520186
v 0.290000 0.000000 -0.502295
v 0.322231 0.000000 -0.482252
v 0.353082 0.000000 -0.460145
v 0.382421 0.000000 -0.436067
v 0.410122 0.000000 -0.410122
v 0.436067 0.000000 -0.382421
v 0.460145 0.000000 -0.353082
v 0.482252 0.000000 -0.322231
v 0.502295 0.000000 -0.290000
v 0.520186 0.000000 -0.256527
v 0.535850 0.000000 -0.221956
v 0.549219 0.000000 -0.186435
v 0.560237 0.000000 -0.150115
v 0.568855 0.000000 -0.113152
v 0.575038 0.000000 -0.075705
v 0.578758 0.000000 -0.037934
v 0.580000 -0.040000 0.000000
v 0.578758 -0.040000 0.037934
v 0.575038 -0.040000 0.075705
v 0.568855 -0.040000 0.113152
v 0.560237 -0.040000 0.150115
v 0.549219 -0.040000 0.186435
v 0.535850 -0.040000 0.221956
v 0.520186 -0.040000 0.256527
v 0.502295 -0.040000 0.290000
v 0.482252 -0.040000 0.322231
v 0.460145 -0.040000 0.353082
v 0.436067 -0.040000 0.382421
v 0.410122 -0.040000 0.410122
v 0.382421 -0.040000 0.436067
v 0.353082 -0.040000 0.460145
v 0.322231 -0.040000 0.482252
v 0.290000 -0.040000 0.502295
v 0.256527 -0.040000 0.520186
v 0.221956 -0.040000 0.535850
v 0.186435 -0.040000 0.549219
v 0.150115 -0.040000 0.560237
v 0.113152 -0.040000 0.568855
v 0.075705 -0.040000 0.575038
v 0.037934 -0.040000 0.578758
v 0.000000 -0.040000 0.580000
v -0.037934 -0.040000 0.578758
v -0.075705 -0.040000 0.575038
v -0.113152 -0.040000 0.568855
v -0.150115 -0.040000 0.560237
v -0.186435 -0.040000 0.549219
v -0.221956 -0.040000 0.535850
v -0.256527 -0.040000 0.520186
v -0.290000 -0.040000 0.502295
v -0.322231 -0.040000 0.482252
v -0.353082 -0.040000 0.460145
v -0.382421 -0.040000 0.436067
v -0.410122 -0.040000 0.410122
v -0.436067 -0.040000 0.382421
v -0.460145 -0.040000 0.353082
v -0.482252 -0.040000 0.322231
v -0.502295 -0.040000 0.290000
v -0.520186 -0.040000 0.256527
v -0.535850 -0.040000 0.221956
v -0.549219 -0.040000 0.186435
v -0.560237 -0.040000 0.150115
v -0.568855 -0.040000 0.113152
v -0.575038 -0.040000 0.075705
v -0.578758 -0.040000 0.037934
v -0.580000 -0.040000 0.000000
v -0.578758 -0.040000 -0.037934
v -0.575038 -0.040000 -0.075705
v -0.568855 -0.040000 -0.113152
v -0.560237 -0.040000 -0.150115
v -0.549219 -0.040000 -0.186435
v -0.535850 -0.040000 -0.221956
v -0.520186 -0.040000 -0.256527
v -0.502295 -0.040000 -0.290000
v -0.482252 -0.040000 -0.322231
v -0.460145 -0.040000 -0.353082
v -0.436067 -0.040000 -0.382421
v -0.410122 -0.040000 -0.410122
v -0.382421 -0.040000 -0.436067
v -0.353082 -0.040000 -0.460145
v -0.322231 -0.040000 -0.482252
v -0.290000 -0.040000 -0.502295
v -0.256527 -0.040000 -0.520186
v -0.221956 -0.040000 -0.535850
v -0.186435 -0.040000 -0.549219
v -0.150115 -0.040000 -0.560237
v -0.113152 -0.040000 -0.568855
v -0.075705 -0.040000 -0.575038
v -0.037934 -0.040000 -0.578758
v -0.000000 -0.040000 -0.580000
v 0.037934 -0.040000 -0.578758
v 0.075705 -0.040000 -0.575038
v 0.113152 -0.040000 -0.568855
v 0.150115 -0.040000 -0.560237
v 0.186435 -0.040000 -0.549219
v 0.221956 -0.040000 -0.535850
v 0.256527 -0.040000 -0.520186
v 0.290000 -0.040000 -0.502295
v 0.322231 -0.040000 -0.482252
v 0.353082 -0.040000 -0.460145
v 0.382421 -0.040000 -0.436067
v 0.410122 -0.040000 -0.410122
v 0.436067 -0.040000 -0.382421
v 0.460145 -0.040000 -0.353082
v 0.482252 -0.040000 -0.322231
v 0.502295 -0.040000 -0.290000
v 0.520186 -0.040000 -0.256527
v 0.535850 -0.040000 -0.221956
v 0.549219 -0.040000 -0.186435
v 0.560237 -0.040000 -0.150115
v 0.568855 -0.040000 -0.113152
v 0.575038 -0.040000 -0.075705
v 0.578758 -0.040000 -0.037934
v 0.580000 0.000000 0.000000
v 0.578758 0.000000 0.037934
v 0.575038 0.000000 0.075705
v 0.568855 0.000000 0.113152
v 0.560237 0.000000 0.150115
v 0.549219 0.000000 0.186435
v 0.535850 0.000000 0.221956
v 0.520186 0.000000 0.256527
v 0.502295 0.000000 0.290000
v 0.482252 0.000000 0.322231
v 0.460145 0.000000 0.353082
v 0.436067 0.000000 0.382421
v 0.410122 0.000000 0.410122
v 0.382421 0.000000 0.436067
v 0.353082 0.000000 0.460145
v 0.322231 0.000000 0.482252
v 0.290000 0.000000 0.502295
v 0.256527 0.000000 0.520186
v 0.221956 0.000000 0.535850
v 0.186435 0.000000 0.549219
v 0.150115 0.000000 0.560237
v 0.113152 0.000000 0.568855
v 0.075705 0.000000 0.575038
v 0.037934 0.000000 0.578758
v 0.000000 0.000000 0.580000
v -0.037934 0.000000 0.578758
v -0.075705 0.000000 0.575038
v -0.113152 0.000000 0.568855
v -0.150115 0.000000 0.560237
v -0.186435 0.000000 0.549219
v -0.221956 0.000000 0.535850
v -0.256527 0.000000 0.520186
v -0.290000 0.000000 0.502295
v -0.322231 0.000000 0.482252
v -0.353082 0.000000 0.460145
v -0.382421 0.000000 0.436067
v -0.410122 0.000000 0.410122
v -0.436067 0.000000 0.382421
v -0.460145 0.000000 0.353082
v -0.482252 0.000000 0.322231
v -0.502295 0.000000 0.290000
v -0.520186 0.000000 0.256527
v -0.535850 0.000000 0.221956
v -0.549219 0.000000 0.186435
v -0.560237 0.000000 0.150115
v -0.568855 0.000000 0.113152
v -0.575038 0.000000 0.075705
v -0.578758 0.000000 0.037934
v -0.580000 0.000000 0.000000
v -0.578758 0.000000 -0.037934
v -0.575038 0.000000 -0.075705
v -0.568855 0.000000 -0.113152
v -0.560237 0.000000 -0.150115
v -0.549219 0.000000 -0.186435
v -0.535850 0.000000 -0.221956
v -0.520186 0.000000 -0.256527
v -0.502295 0.000000 -0.290000
v -0.482252 0.000000 -0.322231
v -0.460145 0.000000 -0.353082
v -0.436067 0.000000 -0.382421
v -0.410122 0.000000 -0.410122
v -0.382421 0.000000 -0.436067
v -0.353082 0.000000 -0.460145
v -0.322231 0.000000 -0.482252
v -0.290000 0.000000 -0.502295
v -0.256527 0.000000 -0.520186
v -0.221956 0.000000 -0.535850
v -0.186435 0.000000 -0.549219
v -0.150115 0.000000 -0.560237
v -0.113152 0.000000 -0.568855
v -0.075705 0.000000 -0.575038
v -0.037934 0.000000 -0.578758
v -0.000000 0.000000 -0.580000
v 0.037934 0.000000 -0.578758
v 0.075705 0.000000 -0.575038
v 0.113152 0.000000 -0.568855
v 0.150115 0.000000 -0.560237
v 0.186435 0.000000 -0.549219
v 0.221956 0.000000 -0.535850
v 0.256527 0.000000 -0.520186
v 0.290000 0.000000 -0.502295
v 0.322231 0.000000 -0.482252
v 0.353082 0.000000 -0.460145
v 0.382421 0.000000 -0.436067
v 0.410122 0.000000 -0.410122
v 0.436067 0.000000 -0.382421
v 0.460145 0.000000 -0.353082
v 0.482252 0.000000 -0.322231
v 0.502295 0.000000 -0.290000
v 0.520186 0.000000 -0.256527
v 0.535850 0.000000 -0.221956
v 0.549219 0.000000 -0.186435
v 0.560237 0.000000 -0.150115
v 0.568855 0.000000 -0.113152
v 0.575038 0.000000 -0.075705
v 0.578758 0.000000 -0.037934
vn 1.000000 0.000000 0.000000
vn 0.997859 0.000000 0.065403
vn 0.991445 0.000000 0.130526
vn 0.980785 0.000000 0.195090
vn 0.965926 0.000000 0.258819
vn 0.946930 0.000000 0.321439
vn 0.923880 0.000000 0.382683
vn 0.896873 0.000000 0.442289
vn 0.866025 0.000000 0.500000
vn 0.831470 0.000000 0.555570
vn 0.793353 0.000000 0.608761
vn 0.751840 0.000000 0.659346
vn 0.707107 0.000000 0.707107
vn 0.659346 0.000000 0.751840
vn 0.608761 0.000000 0.793353
vn 0.555570 0.000000 0.831470
vn 0.500000 0.000000 0.866025
vn 0.442289 0.000000 0.896873
vn 0.382683 0.000000 0.923880
vn 0.321439 0.000000 0.946930
vn 0.258819 0.000000 0.965926
vn 0.195090 0.000000 0.980785
vn 0.130526 0.000000 0.991445
vn 0.065403 0.000000 0.997859
vn 0.000000 0.000000 1.000000
vn -0.065403 0.000000 0.997859
vn -0.130526 0.000000 0.991445
vn -0.195090 0.000000 0.980785
vn -0.258819 0.000000 0.965926
vn -0.321439 0.000000 0.946930
vn -0.382683 0.000000 0.923880
vn -0.442289 0.000000 0.896873
vn -0.500000 0.000000 0.866025
vn -0.555570 0.000000 0.831470
vn -0.608761 0.000000 0.793353
vn -0.659346 0.000000 0.751840
vn -0.707107 0.000000 0.707107
vn -0.751840 0.000000 0.659346
vn -0.793353 0.000000 0.608761
vn -0.831470 0.000000 0.555570
vn -0.866025 0.000000 0.500000
vn -0.896873 0.000000 0.442289
vn -0.923880 0.000000 0.382683
vn -0.946930 0.000000 0.321439
vn -0.965926 0.000000 0.258819
vn -0.980785 0.000000 0.195090
vn -0.991445 0.000000 0.130526
vn -0.997859 0.000000 0.065403
vn -1.000000 0.000000 0.000000
vn -0.997859 0.000000 -0.065403
vn -0.991445 0.000000 -0.130526
vn -0.980785 0.000000 -0.195090
vn -0.965926 0.000000 -0.258819
vn -0.946930 0.000000 -0.321439
vn -0.923880 0.000000 -0.382683
vn -0.896873 0.000000 -0.442289
vn -0.866025 0.000000 -0.500000
vn -0.831470 0.000000 -0.555570
vn -0.793353 0.000000 -0.608761
vn -0.751840 0.000000 -0.659346
vn -0.707107 0.000000 -0.707107
vn -0.659346 0.000000 -0.751840
vn -0.608761 0.000000 -0.793353
vn -0.555570 0.000000 -0.831470
vn -0.500000 0.000000 -0.866025
vn -0.442289 0.000000 -0.896873
vn -0.382683 0.000000 -0.923880
vn -0.321439 0.000000 -0.946930
vn -0.258819 0.000000 -0.965926
vn -0.195090 0.000000 -0.980785
vn -0.130526 0.000000 -0.991445
vn -0.065403 0.000000 -0.997859
vn -0.000000 0.000000 -1.000000
vn 0.065403 0.000000 -0.997859
vn 0.130526 0.000000 -0.991445
vn 0.195090 0.000000 -0.980785
vn 0.258819 0.000000 -0.965926
vn 0.321439 0.000000 -0.946930
vn 0.382683 0.000000 -0.923880
vn 0.442289 0.000000 -0.896873
vn 0.500000 0.000000 -0.866025
vn 0.555570 0.000000 -0.831470
vn 0.608761 0.000000 -0.793353
vn 0.659346 0.000000 -0.751840
vn 0.707107 0.000000 -0.707107
vn 0.751840 0.000000 -0.659346
vn 0.793353 0.000000 -0.608761
vn 0.831470 0.000000 -0.555570
vn 0.866025 0.000000 -0.500000
vn 0.896873 0.000000 -0.442289
vn 0.923880 0.000000 -0.382683
vn 0.946930 0.000000 -0.321439
vn 0.965926 0.000000 -0.258819
vn 0.980785 0.000000 -0.195090
vn 0.991445 0.000000 -0.130526
vn 0.997859 0.000000 -0.065403
vn 1.000000 0.000000 0.000000
vn 0.997859 0.000000 0.065403
vn 0.991445 0.000000 0.130526
vn 0.980785 0.000000 0.195090
vn 0.965926 0.000000 0.258819
vn 0.946930 0.000000 0.321439
vn 0.923880 0.000000 0.382683
vn 0.896873 0.000000 0.442289
vn 0.866025 0.000000 0.500000
vn 0.831470 0.000000 0.555570
vn 0.793353 0.000000 0.608761
vn 0.751840 0.000000 0.659346
vn 0.707107 0.000000 0.707107
vn 0.659346 0.000000 0.751840
vn 0.608761 0.000000 0.793353
vn 0.555570 0.000000 0.831470
vn 0.500000 0.000000 0.866025
vn 0.442289 0.000000 0.896873
vn 0.382683 0.000000 0.923880
vn 0.321439 0.000000 0.946930
vn 0.258819 0.000000 0.965926
vn 0.195090 0.000000 0.980785
vn 0.130526 0.000000 0.991445
vn 0.065403 0.000000 0.997859
vn 0.000000 0.000000 1.000000
vn -0.065403 0.000000 0.997859
vn -0.130526 0.000000 0.991445
vn -0.195090 0.000000 0.980785
vn -0.258819 0.000000 0.965926
vn -0.321439 0.000000 0.946930
vn -0.382683 0.000000 0.923880
vn -0.442289 0.000000 0.896873
vn -0.500000 0.000000 0.866025
vn -0.555570 0.000000 0.831470
vn -0.608761 0.000000 0.793353
vn -0.659346 0.000000 0.751840
vn -0.707107 0.000000 0.707107
vn -0.751840 0.000000 0.659346
vn -0.793353 0.000000 0.608761
vn -0.831470 0.000000 0.555570
vn -0.866025 0.000000 0.500000
vn -0.896873 0.000000 0.442289
vn -0.923880 0.000000 0.382683
vn -0.946930 0.000000 0.321439
vn -0.965926 0.000000 0.258819
vn -0.980785 0.000000 0.195090
vn -0.991445 0.000000 0.130526
vn -0.997859 0.000000 0.065403
vn -1.000000 0.000000 0.000000
vn -0.997859 0.000000 -0.065403
vn -0.991445 0.000000 -0.130526
vn -0.980785 0.000000 -0.195090
vn -0.965926 0.000000 -0.258819
vn -0.946930 0.000000 -0.321439
vn -0.923880 0.000000 -0.382683
vn -0.896873 0.000000 -0.442289
vn -0.866025 0.000000 -0.500000
vn -0.831470 0.000000 -0.555570
vn -0.793353 0.000000 -0.608761
vn -0.751840 0.000000 -0.659346
vn -0.707107 0.000000 -0.707107
vn -0.659346 0.000000 -0.751840
vn -0.608761 0.000000 -0.793353
vn -0.555570 0.000000 -0.831470
vn -0.500000 0.000000 -0.866025
vn -0.442289 0.000000 -0.896873
vn -0.382683 0.000000 -0.923880
vn -0.321439 0.000000 -0.946930
vn -0.258819 0.000000 -0.965926
vn -0.195090 0.000000 -0.980785
vn -0.130526 0.000000 -0.991445
vn -0.065403 0.000000 -0.997859
vn -0.000000 0.000000 -1.000000
vn 0.065403 0.000000 -0.997859
vn 0.130526 0.000000 -0.991445
vn 0.195090 0.000000 -0.980785
vn 0.258819 0.000000 -0.965926
vn 0.321439 0.000000 -0.946930
vn 0.382683 0.000000 -0.923880
vn 0.442289 0.000000 -0.896873
vn 0.500000 0.000000 -0.866025
vn 0.555570 0.000000 -0.831470
vn 0.608761 0.000000 -0.793353
vn 0.659346 0.000000 -0.751840
vn 0.707107 0.000000 -0.707107
vn 0.751840 0.000000 -0.659346
vn 0.793353 0.000000 -0.608761
vn 0.831470 0.000000 -0.555570
vn 0.866025 0.000000 -0.500000
vn 0.896873 0.000000 -0.442289
vn 0.923880 0.000000 -0.382683
vn 0.946930 0.000000 -0.321439
vn 0.965926 0.000000 -0.258819
vn 0.980785 0.000000 -0.195090
vn 0.991445 0.000000 -0.130526
vn 0.997859 0.000000 -0.065403
vn 1.000000 0.000000 0.000000
vn 0.997859 0.000000 0.065403
vn 0.991445 0.000000 0.130526
vn 0.980785 0.000000 0.195090
vn 0.965926 0.000000 0.258819
vn 0.946930 0.000000 0.321439
vn 0.923880 0.000000 0.382683
vn 0.896873 0.000000 0.442289
vn 0.866025 0.000000 0.500000
vn 0.831470 0.000000 0.555570
vn 0.793353 0.000000 0.608761
vn 0.751840 0.000000 0.659346
vn 0.707107 0.000000 0.707107
vn 0.659346 0.000000 0.751840
vn 0.608761 0.000000 0.793353
vn 0.555570 0.000000 0.831470
vn 0.500000 0.000000 0.866025
vn 0.442289 0.000000 0.896873
vn 0.382683 0.000000 0.923880
vn 0.321439 0.000000 0.946930
vn 0.258819 0.000000 0.965926
vn 0.195090 0.000000 0.980785
vn 0.130526 0.000000 0.991445
vn 0.065403 0.000000 0.997859
vn 0.000000 0.000000 1.000000
vn -0.065403 0.000000 0.997859
vn -0.130526 0.000000 0.991445
vn -0.195090 0.000000 0.980785
vn -0.258819 0.000000 0.965926
vn -0.321439 0.000000 0.946930
vn -0.382683 0.000000 0.923880
vn -0.442289 0.000000 0.896873
vn -0.500000 0.000000 0.866025
vn -0.555570 0.000000 0.831470
vn -0.608761 0.000000 0.793353
vn -0.659346 0.000000 0.751840
vn -0.707107 0.000000 0.707107
vn -0.751840 0.000000 0.659346
vn -0.793353 0.000000 0.608761
vn -0.831470 0.000000 0.555570
vn -0.866025 0.000000 0.500000
vn -0.896873 0.000000 0.442289
vn -0.923880 0.000000 0.382683
vn -0.946930 0.000000 0.321439
vn -0.965926 0.000000 0.258819
vn -0.980785 0.000000 0.195090
vn -0.991445 0.000000 0.130526
vn -0.997859 0.000000 0.065403
vn -1.000000 0.000000 0.000000
vn -0.997859 0.000000 -0.065403
vn -0.991445 0.000000 -0.130526
vn -0.980785 0.000000 -0.195090
vn -0.965926 0.000000 -0.258819
vn -0.946930 0.000000 -0.321439
vn -0.923880 0.000000 -0.382683
vn -0.896873 0.000000 -0.442289
vn -0.866025 0.000000 -0.500000
vn -0.831470 0.000000 -0.555570
vn -0.793353 0.000000 -0.608761
vn -0.751840 0.000000 -0.659346
vn -0.707107 0.000000 -0.707107
vn -0.659346 0.000000 -0.751840
vn -0.608761 0.000000 -0.793353
vn -0.555570 0.000000 -0.831470
vn -0.500000 0.000000 -0.866025
vn -0.442289 0.000000 -0.896873
vn -0.382683 0.000000 -0.923880
vn -0.321439 0.000000 -0.946930
vn -0.258819 0.000000 -0.965926
vn -0.195090 0.000000 -0.980785
vn -0.130526 0.000000 -0.991445
vn -0.065403 0.000000 -0.997859
vn -0.000000 0.000000 -1.000000
vn 0.065403 0.000000 -0.997859
vn 0.130526 0.000000 -0.991445
vn 0.195090 0.000000 -0.980785
vn 0.258819 0.000000 -0.965926
vn 0.321439 0.000000 -0.946930
vn 0.382683 0.000000 -0.923880
vn 0.442289 0.000000 -0.896873
vn 0.500000 0.000000 -0.866025
vn 0.555570 0.000000 -0.831470
vn 0.608761 0.000000 -0.793353
vn 0.659346 0.000000 -0.751840
vn 0.707107 0.000000 -0.707107
vn 0.751840 0.000000 -0.659346
vn 0.793353 0.000000 -0.608761
vn 0.831470 0.000000 -0.555570
vn 0.866025 0.000000 -0.500000
vn 0.896873 0.000000 -0.442289
vn 0.923880 0.000000 -0.382683
vn 0.946930 0.000000 -0.321439
vn 0.965926 0.000000 -0.258819
vn 0.980785 0.000000 -0.195090
vn 0.991445 0.000000 -0.130526
vn 0.997859 0.000000 -0.065403
vn 1.000000 0.000000 0.000000
vn 0.997859 0.000000 0.065403
vn 0.991445 0.000000 0.130526
vn 0.980785 0.000000 0.195090
vn 0.965926 0.000000 0.258819
vn 0.946930 0.000000 0.321439
vn 0.923880 0.000000 0.382683
vn 0.896873 0.000000 0.442289
vn 0.866025 0.000000 0.500000
vn 0.831470 0.000000 0.555570
vn 0.793353 0.000000 0.608761
vn 0.751840 0.000000 0.659346
vn 0.707107 0.000000 0.707107
vn 0.659346 0.000000 0.751840
vn 0.608761 0.000000 0.793353
vn 0.555570 0.000000 0.831470
vn 0.500000 0.000000 0.866025
vn 0.442289 0.000000 0.896873
vn 0.382683 0.000000 0.923880
vn 0.321439 0.000000 0.946930
vn 0.258819 0.000000 0.965926
vn 0.195090 0.000000 0.980785
vn 0.130526 0.000000 0.991445
vn 0.065403 0.000000 0.997859
vn 0.000000 0.000000 1.000000
vn -0.065403 0.000000 0.997859
vn -0.130526 0.000000 0.991445
vn -0.195090 0.000000 0.980785
vn -0.258819 0.000000 0.965926
vn -0.321439 0.000000 0.946930
vn -0.382683 0.000000 0.923880
vn -0.442289 0.000000 0.896873
vn -0.500000 0.000000 0.866025
vn -0.555570 0.000000 0.831470
vn -0.608761 0.000000 0.793353
vn -0.659346 0.000000 0.751840
vn -0.707107 0.000000 0.707107
vn -0.751840 0.000000 0.659346
vn -0.793353 0.000000 0.608761
vn -0.831470 0.000000 0.555570
vn -0.866025 0.000000 0.500000
vn -0.896873 0.000000 0.442289
vn -0.923880 0.000000 0.382683
vn -0.946930 0.000000 0.321439
vn -0.965926 0.000000 0.258819
vn -0.980785 0.000000 0.195090
vn -0.991445 0.000000 0.130526
vn -0.997859 0.000000 0.065403
vn -1.000000 0.000000 0.000000
vn -0.997859 0.000000 -0.065403
vn -0.991445 0.000000 -0.130526
vn -0.980785 0.000000 -0.195090
vn -0.965926 0.000000 -0.258819
vn -0.946930 0.000000 -0.321439
vn -0.923880 0.000000 -0.382683
vn -0.896873 0.000000 -0.442289
vn -0.866025 0.000000 -0.500000
vn -0.831470 0.000000 -0.555570
vn -0.793353 0.000000 -0.608761
vn -0.751840 0.000000 -0.659346
vn -0.707107 0.000000 -0.707107
vn -0.659346 0.000000 -0.751840
vn -0.608761 0.000000 -0.793353
vn -0.555570 0.000000 -0.831470
vn -0.500000 0.000000 -0.866025
vn -0.442289 0.000000 -0.896873
vn -0.382683 0.000000 -0.923880
vn -0.321439 0.000000 -0.946930
vn -0.258819 0.000000 -0.965926
vn -0.195090 0.000000 -0.980785
vn -0.130526 0.000000 -0.991445
vn -0.065403 0.000000 -0.997859
vn -0.000000 0.000000 -1.000000
vn 0.065403 0.000000 -0.997859
vn 0.130526 0.000000 -0.991445
vn 0.195090 0.000000 -0.980785
vn 0.258819 0.000000 -0.965926
vn 0.321439 0.000000 -0.946930
vn 0.382683 0.000000 -0.923880
vn 0.442289 0.000000 -0.896873
vn 0.500000 0.000000 -0.866025
vn 0.555570 0.000000 -0.831470
vn 0.608761 0.000000 -0.793353
vn 0.659346 0.000000 -0.751840
vn 0.707107 0.000000 -0.707107
vn 0.751840 0.000000 -0.659346
vn 0.793353 0.000000 -0.608761
vn 0.831470 0.000000 -0.555570
vn 0.866025 0.000000 -0.500000
vn 0.896873 0.000000 -0.442289
vn 0.923880 0.000000 -0.382683
vn 0.946930 0.000000 -0.321439
vn 0.965926 0.000000 -0.258819
vn 0.980785 0.000000 -0.195090
vn 0.991445 0.000000 -0.130526
vn 0.997859 0.000000 -0.065403
vn 1.000000 0.000000 0.000000
vn 0.997859 0.000000 0.065403
vn 0.991445 0.000000 0.130526
vn 0.980785 0.000000 0.195090
vn 0.965926 0.000000 0.258819
vn 0.946930 0.000000 0.321439
vn 0.923880 0.000000 0.382683
vn 0.896873 0.000000 0.442289
vn 0.866025 0.000000 0.500000
vn 0.831470 0.000000 0.555570
vn 0.793353 0.000000 0.608761
vn 0.751840 0.000000 0.659346
vn 0.707107 0.000000 0.707107
vn 0.659346 0.000000 0.751840
vn 0.608761 0.000000 0.793353
vn 0.555570 0.000000 0.831470
vn 0.500000 0.000000 0.866025
vn 0.442289 0.000000 0.896873
vn 0.382683 0.000000 0.923880
vn 0.321439 0.000000 0.946930
vn 0.258819 0.000000 0.965926
vn 0.195090 0.000000 0.980785
vn 0.130526 0.000000 0.991445
vn 0.065403 0.000000 0.997859
vn 0.000000 0.000000 1.000000
vn -0.065403 0.000000 0.997859
vn -0.130526 0.000000 0.991445
vn -0.195090 0.000000 0.980785
vn -0.258819 0.000000 0.965926
vn -0.321439 0.000000 0.946930
vn -0.382683 0.000000 0.923880
vn -0.442289 0.000000 0.896873
vn -0.500000 0.000000 0.866025
vn -0.555570 0.000000 0.831470
vn -0.608761 0.000000 0.793353
vn -0.659346 0.000000 0.751840
vn -0.707107 0.000000 0.707107
vn -0.751840 0.000000 0.659346
vn -0.793353 0.000000 0.608761
vn -0.831470 0.000000 0.555570
vn -0.866025 0.000000 0.500000
vn -0.896873 0.000000 0.442289
vn -0.923880 0.000000 0.382683
vn -0.946930 0.000000 0.321439
vn -0.965926 0.000000 0.258819
vn -0.980785 0.000000 0.195090
vn -0.991445 0.000000 0.130526
vn -0.997859 0.000000 0.065403
vn -1.000000 0.000000 0.000000
vn -0.997859 0.000000 -0.065403
vn -0.991445 0.000000 -0.130526
vn -0.980785 0.000000 -0.195090
vn -0.965926 0.000000 -0.258819
vn -0.946930 0.000000 -0.321439
vn -0.923880 0.000000 -0.382683
vn -0.896873 0.000000 -0.442289
vn -0.866025 0.000000 -0.500000
vn -0.831470 0.000000 -0.555570
vn -0.793353 0.000000 -0.608761
vn -0.751840 0.000000 -0.659346
vn -0.707107 0.000000 -0.707107
vn -0.659346 0.000000 -0.751840
vn -0.608761 0.000000 -0.793353
vn -0.555570 0.000000 -0.831470
vn -0.500000 0.000000 -0.866025
vn -0.442289 0.000000 -0.896873
vn -0.382683 0.000000 -0.923880
vn -0.321439 0.000000 -0.946930
vn -0.258819 0.000000 -0.965926
vn -0.195090 0.000000 -0.980785
vn -0.130526 0.000000 -0.991445
vn -0.065403 0.000000 -0.997859
vn -0.000000 0.000000 -1.000000
vn 0.065403 0.000000 -0.997859
vn 0.130526 0.000000 -0.991445
vn 0.195090 0.000000 -0.980785
vn 0.258819 0.000000 -0.965926
vn 0.321439 0.000000 -0.946930
vn 0.382683 0.000000 -0.923880
vn 0.442289 0.000000 -0.896873
vn 0.500000 0.000000 -0.866025
vn 0.555570 0.000000 -0.831470
vn 0.608761 0.000000 -0.793353
vn 0.659346 0.000000 -0.751840
vn 0.707107 0.000000 -0.707107
vn 0.751840 0.000000 -0.659346
vn 0.793353 0.000000 -0.608761
vn 0.831470 0.000000 -0.555570
vn 0.866025 0.000000 -0.500000
vn 0.896873 0.000000 -0.442289
vn 0.923880 0.000000 -0.382683
vn 0.946930 0.000000 -0.321439
vn 0.965926 0.000000 -0.258819
vn 0.980785 0.000000 -0.195090
vn 0.991445 0.000000 -0.130526
vn 0.997859 0.000000 -0.065403
f 1//1 2//2 98//98
f 1//1 98//98 97//97
f 2//2 3//3 99//99
f 2//2 99//99 98//98
f 3//3 4//4 100//100
f 3//3 100//100 99//99
f 4//4 5//5 101//101
f 4//4 101//101 100//100
f 5//5 6//6 102//102
f 5//5 102//102 101//101
f 6//6 7//7 103//103
f 6//6 103//103 102//102
f 7//7 8//8 104//104
f 7//7 104//104 103//103
f 8//8 9//9 105//105
f 8//8 105//105 104//104
f 9//9 10//10 106//106
f 9//9 106//106 105//105
f 10//10 11//11 107//107
f 10//10 107//107 106//106
f 11//11 12//12 108//108
f 11//11 108//108 107//107
f 12//12 13//13 109//109
f 12//12 109//109 108//108
f 13//13 14//14 110//110
f 13//13 110//110 109//109
f 14//14 15//15 111//111
f 14//14 111//111 110//110
f 15//15 16//16 112//112
f 15//15 112//112 111//111
f 16//16 17//17 113//113
f 16//16 113//113 112//112
f 17//17 18//18 114//114
f 17//17 114//114 113//113
f 18//18 19//19 115//115
f 18//18 115//115 114//114
f 19//19 20//20 116//116
f 19//19 116//116 115//115
f 20//20 21//21 117//117
f 20//20 117//117 116//116
f 21//21 22//22 118//118
f 21//21 118//118 117//117
f 22//22 23//23 119//119
f 22//22 119//119 118//118
f 23//23 24//24 120//120
f 23//23 120//120 119//119
f 24//24 25//25 121//121
f 24//24 121//121 120//120
f 25//25 26//26 122//122
f 25//25 122//122 121//121
f 26//26 27//27 123//123
f 26//26 123//123 122//122
f 27//27 28//28 124//124
f 27//27 124//124 123//123
f 28//28 29//29 125//125
f 28//28 125//125 124//124
f 29//29 30//30 126//126
f 29//29 126//126 125//125
f 30//30 31//31 127//127
f 30//30 127//127 126//126
f 31//31 32//32 128//128
f 31//31 128//128 127//127
f 32//32 33//33 129//129
f 32//32 129//129 128//128
f 33//33 34//34 130//130
f 33//33 130//130 129//129
f 34//34 35//35 131//131
f 34//34 131//131 130//130
f 35//35 36//36 132//132
f 35//35 132//132 131//131
f 36//36 37//37 133//133
f 36//36 133//133 132//132
f 37//37 38//38 134//134
f 37//37 134//134 133//133
f 38//38 39//39 135//135
f 38//38 135//135 134//134
f 39//39 40//40 136//136
f 39//39 136//136 135//135
f 40//40 41//41 137//137
f 40//40 137//137 136//136
f 41//41 42//42 138//138
f 41//41 138//138 137//137
f 42//42 43//43 139//139
f 42//42 139//139 138//138
f 43//43 44//44 140//140
f 43//43 140//140 139//139
f 44//44 45//45 141//141
f 44//44 141//141 140//140
f 45//45 46//46 142//142
f 45//45 142//142 141//141
f 46//46 47//47 143//143
f 46//46 143//143 142//142
f 47//47 48//48 144//144
f 47//47 144//144 143//143
f 48//48 49//49 145//145
f 48//48 145//145 144//144
f 49//49 50//50 146//146
f 49//49 146//146 145//145
f 50//50 51//51 147//147
f 50//50 147//147 146//146
f 51//51 52//52 148//148
f 51//51 148//148 147//147
f 52//52 53//53 149//149
f 52//52 149//149 148//148
f 53//53 54//54 150//150
f 53//53 150//150 149//149
f 54//54 55//55 151//151
f 54//54 151//151 150//150
f 55//55 56//56 152//152
f 55//55 152//152 151//151
f 56//56 57//57 153//153
f 56//56 153//153 152//152
f 57//57 58//58 154//154
f 57//57 154//154 153//153
f 58//58 59//59 155//155
f 58//58 155//155 154//154
f 59//59 60//60 156//156
f 59//59 156//156 155//155
f 60//60 61//61 157//157
f 60//60 157//157 156//156
f 61//61 62//62 158//158
f 61//61 158//158 157//157
f 62//62 63//63 159//159
f 62//62 159//159 158//158
f 63//63 64//64 160//160
f 63//63 160//160 159//159
f 64//64 65//65 161//161
f 64//64 161//161 160//160
f 65//65 66//66 162//162
f 65//65 162//162 161//161
f 66//66 67//67 163//163
f 66//66 163//163 162//162
f 67//67 68//68 164//164
f 67//67 164//164 163//163
f 68//68 69//69 165//165
f 68//68 165//165 164//164
f 69//69 70//70 166//166
f 69//69 166//166 165//165
f 70//70 71//71 167//167
f 70//70 167//167 166//166
f 71//71 72//72 168//168
f 71//71 168//168 167//167
f 72//72 73//73 169//169
f 72//72 169//169 168//168
f 73//73 74//74 170//170
f 73//73 170//170 169//169
f 74//74 75//75 171//171
f 74//74 171//171 170//170
f 75//75 76//76 172//172
f 75//75 172//172 171//171
f 76//76 77//77 173//173
f 76//76 173//173 172//172
f 77//77 78//78 174//174
f 77//77 174//174 173//173
f 78//78 79//79 175//175
f 78//78 175//175 174//174
f 79//79 80//80 176//176
f 79//79 176//176 175//175
f 80//80 81//81 177//177
f 80//80 177//177 176//176
f 81//81 82//82 178//178
f 81//81 178//178 177//177
f 82//82 83//83 179//179
f 82//82 179//179 178//178
f 83//83 84//84 180//180
f 83//83 180//180 179//179
f 84//84 85//85 181//181
f 84//84 181//181 180//180
f 85//85 86//86 182//182
f 85//85 182//182 181//181
f 86//86 87//87 183//183
f 86//86 183//183 182//182
f 87//87 88//88 184//184
f 87//87 184//184 183//183
f 88//88 89//89 185//185
f 88//88 185//185 184//184
f 89//89 90//90 186//186
f 89//89 186//186 185//185
f 90//90 91//91 187//187
f 90//90 187//187 186//186
f 91//91 92//92 188//188
f 91//91 188//188 187//187
f 92//92 93//93 189//189
f 92//92 189//189 188//188
f 93//93 94//94 190//190
f 93//93 190//190 189//189
f 94//94 95//95 191//191
f 94//94 191//191 190//190
f 95//95 96//96 192//192
f 95//95 192//192 191//191
f 96//96 1//1 97//97
f 96//96 97//97 192//192
f 97//97 98//98 194//194
f 97//97 194//194 193//193
f 98//98 99//99 195//195
f 98//98 195//195 194//194
f 99//99 100//100 196//196
f 99//99 196//196 195//195
f 100//100 101//101 197//197
f 100//100 197//197 196//196
f 101//101 102//102 198//198
f 101//101 198//198 197//197
f 102//102 103//103 199//199
f 102//102 199//199 198//198
f 103//103 104//104 200//200
f 103//103 200//200 199//199
f 104//104 105//105 201//201
f 104//104 201//201 200//200
f 105//105 106//106 202//202
f 105//105 202//202 201//201
f 106//106 107//107 203//203
f 106//106 203//203 202//202
f 107//107 108//108 204//204
f 107//107 204//204 203//203
f 108//108 109//109 205//205
f 108//108 205//205 204//204
f 109//109 110//110 206//206
f 109//109 206//206 205//205
f 110//110 111//111 207//207
f 110//110 207//207 206//206
f 111//111 112//112 208//208
f 111//111 208//208 207//207
f 112//112 113//113 209//209
f 112//112 209//209 208//208
f 113//113 114//114 210//210
f 113//113 210//210 209//209
f 114//114 115//115 211//211
f 114//114 211//211 210//210
f 115//115 116//116 212//212
f 115//115 212//212 211//211
f 116//116 117//117 213//213
f 116//116 213//213 212//212
f 117//117 118//118 214//214
f 117//117 214//214 213//213
f 118//118 119//119 215//215
f 118//118 215//215 214//214
f 119//119 120//120 216//216
f 119//119 216//216 215//215
f 120//120 121//121 217//217
f 120//120 217//217 216//216
f 121//121 122//122 218//218
f 121//121 218//218 217//217
f 122//122 123//123 219//219
f 122//122 219//219 218//218
f 123//123 124//124 220//220
f 123//123 220//220 219//219
f 124//124 125//125 221//221
f 124//124 221//221 220//220
f 125//125 126//126 222//222
f 125//125 222//222 221//221
f 126//126 127//127 223//223
f 126//126 223//223 222//222
f 127//127 128//128 224//224
f 127//127 224//224 223//223
f 128//128 129//129 225//225
f 128//128 225//225 224//224
f 129//129 130//130 226//226
f 129//129 226//226 225//225
f 130//130 131//131 227//227
f 130//130 227//227 226//226
f 131//131 132//132 228//228
f 131//131 228//228 227//227
f 132//132 133//133 229//229
f 132//132 229//229 228//228
f 133//133 134//134 230//230
f 133//133 230//230 229//229
f 134//134 135//135 231//231
f 134//134 231//231 230//230
f 135//135 136//136 232//232
f 135//135 232//232 231//231
f 136//136 137//137 233//233
f 136//136 233//233 232//232
f 137//137 138//138 234//234
f 137//137 234//234 233//233
f 138//138 139//139 235//235
f 138//138 235//235 234//234
f 139//139 140//140 236//236
f 139//139 236//236 235//235
f 140//140 141//141 237//237
f 140//140 237//237 236//236
f 141//141 142//142 238//238
f 141//141 238//238 237//237
f 142//142 143//143 239//239
f 142//142 239//239 238//238
f 143//143 144//144 240//240
f 143//143 240//240 239//239
f 144//144 145//145 241//241
f 144//144 241//241 240//240
f 145//145 146//146 242//242
f 145//145 242//242 241//241
f 146//146 147//147 243//243
f 146//146 243//243 242//242
f 147//147 148//148 244//244
f 147//147 244//244 243//243
f 148//148 149//149 245//245
f 148//148 245//245 244//244
f 149//149 150//150 246//246
f 149//149 246//246 245//245
f 150//150 151//151 247//247
f 150//150 247//247 246//246
f 151//151 152//152 248//248
f 151//151 248//248 247//247
f 152//152 153//153 249//249
f 152//152 249//249 248//248
f 153//153 154//154 250//250
f 153//153 250//250 249//249
f 154//154 155//155 251//251
f 154//154 251//251 250//250
f 155//155 156//156 252//252
f 155//155 252//252 251//251
f 156//156 157//157 253//253
f 156//156 253//253 252//252
f 157//157 158//158 254//254
f 157//157 254//254 253//253
f 158//158 159//159 255//255
f 158//158 255//255 254//254
f 159//159 160//160 256//256
f 159//159 256//256 255//255
f 160//160 161//161 257//257
f 160//160 257//257 256//256
f 161//161 162//162 258//258
f 161//161 258//258 257//257
f 162//162 163//163 259//259
f 162//162 259//259 258//258
f 163//163 164//164 260//260
f 163//163 260//260 259//259
f 164//164 165//165 261//261
f 164//164 261//261 260//260
f 165//165 166//166 262//262
f 165//165 262//262 261//261
f 166//166 167//167 263//263
f 166//166 263//263 262//262
f 167//167 168//168 264//264
f 167//167 264//264 263//263
f 168//168 169//169 265//265
f 168//168 265//265 264//264
f 169//169 170//170 266//266
f 169//169 266//266 265//265
f 170//170 171//171 267//267
f 170//170 267//267 266//266
f 171//171 172//172 268//268
f 171//171 268//268 267//267
f 172//172 173//173 269//269
f 172//172 269//269 268//268
f 173//173 174//174 270//270
f 173//173 270//270 269//269
f 174//174 175//175 271//271
f 174//174 271//271 270//270
f 175//175 176//176 272//272
f 175//175 272//272 271//271
f 176//176 177//177 273//273
f 176//176 273//273 272//272
f 177//177 178//178 274//274
f 177//177 274//274 273//273
f 178//178 179//179 275//275
f 178//178 275//275 274//274
f 179//179 180//180 276//276
f 179//179 276//276 275//275
f 180//180 181//181 277//277
f 180//180 277//277 276//276
f 181//181 182//182 278//278
f 181//181 278//278 277//277
f 182//182 183//183 279//279
f 182//182 279//279 278//278
f 183//183 184//184 280//280
f 183//183 280//280 279//279
f 184//184 185//185 281//281
f 184//184 281//281 280//280
f 185//185 186//186 282//282
f 185//185 282//282 281//281
f 186//186 187//187 283//283
f 186//186 283//283 282//282
f 187//187 188//188 284//284
f 187//187 284//284 283//283
f 188//188 189//189 285//285
f 188//188 285//285 284//284
f 189//189 190//190 286//286
f 189//189 286//286 285//285
f 190//190 191//191 287//287
f 190//190 287//287 286//286
f 191//191 192//192 288//288
f 191//191 288//288 287//287
f 192//192 97//97 193//193
f 192//192 193//193 288//288
f 193//193 194//194 290//290
f 193//193 290//290 289//289
f 194//194 195//195 291//291
f 194//194 291//291 290//290
f 195//195 196//196 292//292
f 195//195 292//292 291//291
f 196//196 197//197 293//293
f 196//196 293//293 292//292
f 197//197 198//198 294//294
f 197//197 294//294 293//293
f 198//198 199//199 295//295
f 198//198 295//295 294//294
f 199//199 200//200 296//296
f 199//199 296//296 295//295
f 200//200 201//201 297//297
f 200//200 297//297 296//296
f 201//201 202//202 298//298
f 201//201 298//298 297//297
f 202//202 203//203 299//299
f 202//202 299//299 298//298
f 203//203 204//204 300//300
f 203//203 300//300 299//299
f 204//204 205//205 301//301
f 204//204 301//301 300//300
f 205//205 206//206 302//302
f 205//205 302//302 301//301
f 206//206 207//207 303//303
f 206//206 303//303 302//302
f 207//207 208//208 304//304
f 207//207 304//304 303//303
f 208//208 209//209 305//305
f 208//208 305//305 304//304
f 209//209 210//210 306//306
f 209//209 306//306 305//305
f 210//210 211//211 307//307
f 210//210 307//307 306//306
f 211//211 212//212 308//308
f 211//211 308//308 307//307
f 212//212 213//213 309//309
f 212//212 309//309 308//308
f 213//213 214//214 310//310
f 213//213 310//310 309//309
f 214//214 215//215 311//311
f 214//214 311//311 310//310
f 215//215 216//216 312//312
f 215//215 312//312 311//311
f 216//216 217//217 313//313
f 216//216 313//313 312//312
f 217//217 218//218 314//314
f 217//217 314//314 313//313
f 218//218 219//219 315//315
f 218//218 315//315 314//314
f 219//219 220//220 316//316
f 219//219 316//316 315//315
f 220//220 221//221 317//317
f 220//220 317//317 316//316
f 221//221 222//222 318//318
f 221//221 318//318 317//317
f 222//222 223//223 319//319
f 222//222 319//319 318//318
f 223//223 224//224 320//320
f 223//223 320//320 319//319
f 224//224 225//225 321//321
f 224//224 321//321 320//320
f 225//225 226//226 322//322
f 225//225 322//322 321//321
f 226//226 227//227 323//323
f 226//226 323//323 322//322
f 227//227 228//228 324//324
f 227//227 324//324 323//323
f 228//228 229//229 325//325
f 228//228 325//325 324//324
f 229//229 230//230 326//326
f 229//229 326//326 325//325
f 230//230 231//231 327//327
f 230//230 327//327 326//326
f 231//231 232//232 328//328
f 231//231 328//328 327//327
f 232//232 233//233 329//329
f 232//232 329//329 328//328
f 233//233 234//234 330//330
f 233//233 330//330 329//329
f 234//234 235//235 331//331
f 234//234 331//331 330//330
f 235//235 236//236 332//332
f 235//235 332//332 331//331
f 236//236 237//237 333//333
f 236//236 333//333 332//332
f 237//237 238//238 334//334
f 237//237 334//334 333//333
f 238//238 239//239 335//335
f 238//238 335//335 334//334
f 239//239 240//240 336//336
f 239//239 336//336 335//335
f 240//240 241//241 337//337
f 240//240 337//337 336//336
f 241//241 242//242 338//338
f 241//241 338//338 337//337
f 242//242 243//243 339//339
f 242//242 339//339 338//338
f 243//243 244//244 340//340
f 243//243 340//340 339//339
f 244//244 245//245 341//341
f 244//244 341//341 340//340
f 245//245 246//246 342//342
f 245//245 342//342 341//341
f 246//246 247//247 343//343
f 246//246 343//343 342//342
f 247//247 248//248 344//344
f 247//247 344//344 343//343
f 248//248 249//249 345//345
f 248//248 345//345 344//344
f 249//249 250//250 346//346
f 249//249 346//346 345//345
f 250//250 251//251 347//347
f 250//250 347//347 346//346
f 251//251 252//252 348//348
f 251//251 348//348 347//347
f 252//252 253//253 349//349
f 252//252 349//349 348//348
f 253//253 254//254 350//350
f 253//253 350//350 349//349
f 254//254 255//255 351//351
f 254//254 351//351 350//350
f 255//255 256//256 352//352
f 255//255 352//352 351//351
f 256//256 257//257 353//353
f 256//256 353//353 352//352
f 257//257 258//258 354//354
f 257//257 354//354 353//353
f 258//258 259//259 355//355
f 258//258 355//355 354//354
f 259//259 260//260 356//356
f 259//259 356//356 355//355
f 260//260 261//261 357//357
f 260//260 357//357 356//356
f 261//261 262//262 358//358
f 261//261 358//358 357//357
f 262//262 263//263 359//359
f 262//262 359//359 358//358
f 263//263 264//264 360//360
f 263//263 360//360 359//359
f 264//264 265//265 361//361
f 264//264 361//361 360//360
f 265//265 266//266 362//362
f 265//265 362//362 361//361
f 266//266 267//267 363//363
f 266//266 363//363 362//362
f 267//267 268//268 364//364
f 267//267 364//364 363//363
f 268//268 269//269 365//365
f 268//268 365//365 364//364
f 269//269 270//270 366//366
f 269//269 366//366 365//365
f 270//270 271//271 367//367
f 270//270 367//367 366//366
f 271//271 272//272 368//368
f 271//271 368//368 367//367
f 272//272 273//273 369//369
f 272//272 369//369 368//368
f 273//273 274//274 370//370
f 273//273 370//370 369//369
f 274//274 275//275 371//371
f 274//274 371//371 370//370
f 275//275 276//276 372//372
f 275//275 372//372 371//371
f 276//276 277//277 373//373
f 276//276 373//373 372//372
f 277//277 278//278 374//374
f 277//277 374//374 373//373
f 278//278 279//279 375//375
f 278//278 375//375 374//374
f 279//279 280//280 376//376
f 279//279 376//376 375//375
f 280//280 281//281 377//377
f 280//280 377//377 376//376
f 281//281 282//282 378//378
f 281//281 378//378 377//377
f 282//282 283//283 379//379
f 282//282 379//379 378//378
f 283//283 284//284 380//380
f 283//283 380//380 379//379
f 284//284 285//285 381//381
f 284//284 381//381 380//380
f 285//285 286//286 382//382
f 285//285 382//382 381//381
f 286//286 287//287 383//383
f 286//286 383//383 382//382
f 287//287 288//288 384//384
f 287//287 384//384 383//383
f 288//288 193//193 289//289
f 288//288 289//289 384//384
f 289//289 290//290 386//386
f 289//289 386//386 385//385
f 290//290 291//291 387//387
f 290//290 387//387 386//386
f 291//291 292//292 388//388
f 291//291 388//388 387//387
f 292//292 293//293 389//389
f 292//292 389//389 388//388
f 293//293 294//294 390//390
f 293//293 390//390 389//389
f 294//294 295//295 391//391
f 294//294 391//391 390//390
f 295//295 296//296 392//392
f 295//295 392//392 391//391
f 296//296 297//297 393//393
f 296//296 393//393 392//392
f 297//297 298//298 394//394
f 297//297 394//394 393//393
f 298//298 299//299 395//395
f 298//298 395//395 394//394
f 299//299 300//300 396//396
f 299//299 396//396 395//395
f 300//300 301//301 397//397
f 300//300 397//397 396//396
f 301//301 302//302 398//398
f 301//301 398//398 397//397
f 302//302 303//303 399//399
f 302//302 399//399 398//398
f 303//303 304//304 400//400
f 303//303 400//400 399//399
f 304//304 305//305 401//401
f 304//304 401//401 400//400
f 305//305 306//306 402//402
f 305//305 402//402 401//401
f 306//306 307//307 403//403
f 306//306 403//403 402//402
f 307//307 308//308 404//404
f 307//307 404//404 403//403
f 308//308 309//309 405//405
f 308//308 405//405 404//404
f 309//309 310//310 406//406
f 309//309 406//406 405//405
f 310//310 311//311 407//407
f 310//310 407//407 406//406
f 311//311 312//312 408//408
f 311//311 408//408 407//407
f 312//312 313//313 409//409
f 312//312 409//409 408//408
f 313//313 314//314 410//410
f 313//313 410//410 409//409
f 314//314 315//315 411//411
f 314//314 411//411 410//410
f 315//315 316//316 412//412
f 315//315 412//412 411//411
f 316//316 317//317 413//413
f 316//316 413//413 412//412
f 317//317 318//318 414//414
f 317//317 414//414 413//413
f 318//318 319//319 415//415
f 318//318 415//415 414//414
f 319//319 320//320 416//416
f 319//319 416//416 415//415
f 320//320 321//321 417//417
f 320//320 417//417 416//416
f 321//321 322//322 418//418
f 321//321 418//418 417//417
f 322//322 323//323 419//419
f 322//322 419//419 418//418
f 323//323 324//324 420//420
f 323//323 420//420 419//419
f 324//324 325//325 421//421
f 324//324 421//421 420//420
f 325//325 326//326 422//422
f 325//325 422//422 421//421
f 326//326 327//327 423//423
f 326//326 423//423 422//422
f 327//327 328//328 424//424
f 327//327 424//424 423//423
f 328//328 329//329 425//425
f 328//328 425//425 424//424
f 329//329 330//330 426//426
f 329//329 426//426 425//425
f 330//330 331//331 427//427
f 330//330 427//427 426//426
f 331//331 332//332 428//428
f 331//331 428//428 427//427
f 332//332 333//333 429//429
f 332//332 429//429 428//428
f 333//333 334//334 430//430
f 333//333 430//430 429//429
f 334//334 335//335 431//431
f 334//334 431//431 430//430
f 335//335 336//336 432//432
f 335//335 432//432 431//431
f 336//336 337//337 433//433
f 336//336 433//433 432//432
f 337//337 338//338 434//434
f 337//337 434//434 433//433
f 338//338 339//339 435//435
f 338//338 435//435 434//434
f 339//339 340//340 436//436
f 339//339 436//436 435//435
f 340//340 341//341 437//437
f 340//340 437//437 436//436
f 341//341 342//342 438//438
f 341//341 438//438 437//437
f 342//342 343//343 439//439
f 342//342 439//439 438//438
f 343//343 344//344 440//440
f 343//343 440//440 439//439
f 344//344 345//345 441//441
f 344//344 441//441 440//440
f 345//345 346//346 442//442
f 345//345 442//442 441//441
f 346//346 347//347 443//443
f 346//346 443//443 442//442
f 347//347 348//348 444//444
f 347//347 444//444 443//443
f 348//348 349//349 445//445
f 348//348 445//445 444//444
f 349//349 350//350 446//446
f 349//349 446//446 445//445
f 350//350 351//351 447//447
f 350//350 447//447 446//446
f 351//351 352//352 448//448
f 351//351 448//448 447//447
f 352//352 353//353 449//449
f 352//352 449//449 448//448
f 353//353 354//354 450//450
f 353//353 450//450 449//449
f 354//354 355//355 451//451
f 354//354 451//451 450//450
f 355//355 356//356 452//452
f 355//355 452//452 451//451
f 356//356 357//357 453//453
f 356//356 453//453 452//452
f 357//357 358//358 454//454
f 357//357 454//454 453//453
f 358//358 359//359 455//455
f 358//358 455//455 454//454
f 359//359 360//360 456//456
f 359//359 456//456 455//455
f 360//360 361//361 457//457
f 360//360 457//457 456//456
f 361//361 362//362 458//458
f 361//361 458//458 457//457
f 362//362 363//363 459//459
f 362//362 459//459 458//458
f 363//363 364//364 460//460
f 363//363 460//460 459//459
f 364//364 365//365 461//461
f 364//364 461//461 460//460
f 365//365 366//366 462//462
f 365//365 462//462 461//461
f 366//366 367//367 463//463
f 366//366 463//463 462//462
f 367//367 368//368 464//464
f 367//367 464//464 463//463
f 368//368 369//369 465//465
f 368//368 465//465 464//464
f 369//369 370//370 466//466
f 369//369 466//466 465//465
f 370//370 371//371 467//467
f 370//370 467//467 466//466
f 371//371 372//372 468//468
f 371//371 468//468 467//467
f 372//372 373//373 469//469
f 372//372 469//469 468//468
f 373//373 374//374 470//470
f 373//373 470//470 469//469
f 374//374 375//375 471//471
f 374//374 471//471 470//470
f 375//375 376//376 472//472
f 375//375 472//472 471//471
f 376//376 377//377 473//473
f 376//376 473//473 472//472
f 377//377 378//378 474//474
f 377//377 474//474 473//473
f 378//378 379//379 475//475
f 378//378 475//475 474//474
f 379//379 380//380 476//476
f 379//379 476//476 475//475
f 380//380 381//381 477//477
f 380//380 477//477 476//476
f 381//381 382//382 478//478
f 381//381 478//478 477//477
f 382//382 383//383 479//479
f 382//382 479//479 478//478
f 383//383 384//384 480//480
f 383//383 480//480 479//479
f 384//384 289//289 385//385
f 384//384 385//385 480//480
